# xmcd CD database file
#
# Track frame offsets:
#	200
#	10517
#	23267
#	36017
#	46120
#	57517
#	72167
#	84017
#	96842
#	110792
#	120337
#	128717
#
# Disc length: 1926 seconds
#
# Revision: 0
# Processed by: cddbd v1.4PL0 Copyright (c) Steve Scherf et al.
# Submitted via: CDex 1.51
#
DISCID=8407840c
DTITLE=Juan Acereto - Nuestro Gran Amor
DYEAR=1900
DGENRE=Español
TTITLE0=Nuestro gran amor
TTITLE1=No arrincones mis besos
TTITLE2=Estas dentro de mi
TTITLE3=Olvidame}
TTITLE4=Pintare tu imagen
TTITLE5=Sabre de ti
TTITLE6=El ancla rota
TTITLE7=Levantate y camina
TTITLE8=Tus labios
TTITLE9=El viemto
TTITLE10=Dime, dime}
TTITLE11=Antes
EXTD=
EXTT0=
EXTT1=
EXTT2=
EXTT3=
EXTT4=
EXTT5=
EXTT6=
EXTT7=
EXTT8=
EXTT9=
EXTT10=
EXTT11=
PLAYORDER=
